<?xml version="1.0" standalone="yes"?>
<svg xmlns="http://www.w3.org/2000/svg" width="289" height="275">
<path style="fill:#f8fafa; stroke:none;" d="M0 0L0 275L289 275L289 0L0 0z"/>
<path style="fill:#d4d6d7; stroke:none;" d="M43.6667 10.3333L44.3333 10.6667L43.6667 10.3333z"/>
<path style="fill:#82d5fa; stroke:none;" d="M45.6667 10.3333L46.3333 10.6667L45.6667 10.3333z"/>
<path style="fill:#71b9db; stroke:none;" d="M21 138L149 138L149 10L68 10C54.9436 10 40.3751 8.38388 30.0934 18.1852C19.5927 28.1952 21 42.7745 21 56L21 138z"/>
<path style="fill:#039ee5; stroke:none;" d="M149 10L149 138L21 138L21 220C21 233.311 19.5068 247.723 30.0934 257.815C40.4609 267.698 54.8529 266 68 266L149 266L149 138L277 138L277 56C277 42.7746 278.407 28.1952 267.907 18.1852C257.625 8.38388 243.056 10 230 10L149 10z"/>
<path style="fill:#71b9db; stroke:none;" d="M251 10L252 11L251 10z"/>
<path style="fill:#82d5fa; stroke:none;" d="M252.667 10.3333L253.333 10.6667L252.667 10.3333z"/>
<path style="fill:#d4d6d7; stroke:none;" d="M254 10L255 11L254 10M40 11L41 12L40 11z"/>
<path style="fill:#82d5fa; stroke:none;" d="M41 11L42 12L41 11z"/>
<path style="fill:#71b9db; stroke:none;" d="M256 11L257 12L256 11z"/>
<path style="fill:#d4d6d7; stroke:none;" d="M257 11L258 12L257 11z"/>
<path style="fill:#82d5fa; stroke:none;" d="M38 12L39 13L38 12M259 12L260 13L259 12M36 13L37 14L36 13M261 13L262 14L261 13z"/>
<path style="fill:#d4d6d7; stroke:none;" d="M34 14L35 15L34 14z"/>
<path style="fill:#82d5fa; stroke:none;" d="M263 14L264 15L263 14M33 15L34 16L33 15z"/>
<path style="fill:#71b9db; stroke:none;" d="M264 15L265 16L264 15z"/>
<path style="fill:#d4d6d7; stroke:none;" d="M31 16L32 17L31 16M266 16L267 17L266 16M30 17L31 18L30 17M267 17L268 18L267 17M29 18L30 19L29 18z"/>
<path style="fill:#82d5fa; stroke:none;" d="M268 18L269 19L268 18z"/>
<path style="fill:#d4d6d7; stroke:none;" d="M28 19L29 20L28 19M269 19L270 20L269 19M27 20L28 21L27 20M270 20L271 21L270 20z"/>
<path style="fill:#82d5fa; stroke:none;" d="M26 22L27 23L26 22z"/>
<path style="fill:#71b9db; stroke:none;" d="M271 22L272 23L271 22z"/>
<path style="fill:#d4d6d7; stroke:none;" d="M25 23L26 24L25 23z"/>
<path style="fill:#82d5fa; stroke:none;" d="M272 23L273 24L272 23M24 25L25 26L24 25M273 25L274 26L273 25M23 27L24 28L23 27M274 27L275 28L274 27z"/>
<path style="fill:#d4d6d7; stroke:none;" d="M22 29L23 30L22 29M275 29L276 30L275 29z"/>
<path style="fill:#82d5fa; stroke:none;" d="M22 30L23 31L22 30z"/>
<path style="fill:#71b9db; stroke:none;" d="M275 30L276 31L275 30z"/>
<path style="fill:#d4d6d7; stroke:none;" d="M21.3333 32.6667L21.6667 33.3333L21.3333 32.6667M276 32L277 33L276 32z"/>
<path style="fill:#82d5fa; stroke:none;" d="M276.333 33.6667L276.667 34.3333L276.333 33.6667M21.3333 34.6667L21.6667 35.3333L21.3333 34.6667z"/>
<path style="fill:#71b9db; stroke:none;" d="M276 35L277 36L276 35z"/>
<path style="fill:#82d5fa; stroke:none;" d="M84.6667 52.3333L85.3333 52.6667L84.6667 52.3333z"/>
<path style="fill:#d4d6d7; stroke:none;" d="M81 53L82 54L81 53z"/>
<path style="fill:#f8fafa; stroke:none;" d="M77 72C69.8204 72 60.8291 70.1539 59 79L111 79C109.171 70.1539 100.18 72 93 72C93 67.3151 93.9315 61.3515 91.5432 57.1088C88.3672 51.4666 80.4951 52.2878 78.0093 58.044C76.2142 62.2007 77 67.5739 77 72z"/>
<path style="fill:#d4d6d7; stroke:none;" d="M88 53L89 54L88 53z"/>
<path style="fill:#82d5fa; stroke:none;" d="M79 54L80 55L79 54z"/>
<path style="fill:#d4d6d7; stroke:none;" d="M78 56L79 57L78 56M91 56L92 57L91 56z"/>
<path style="fill:#82d5fa; stroke:none;" d="M77 57L78 58L77 57M92 57L93 58L92 57z"/>
<path style="fill:#d4d6d7; stroke:none;" d="M77 58L78 59L77 58M92 58L93 59L92 58z"/>
<path style="fill:#71b9db; stroke:none;" d="M188 68L188 69L238 69C225.11 63.5913 202.049 68 188 68z"/>
<path style="fill:#82d5fa; stroke:none;" d="M185 69L186 70L185 69z"/>
<path style="fill:#f8fafa; stroke:none;" d="M181 77L245 77C243.851 73.2137 242.176 70.1725 237.985 69.2785C227.83 67.1129 215.382 69 205 69C199.433 69 192.423 67.8727 187.043 69.4336C183.319 70.5143 182.019 73.6017 181 77z"/>
<path style="fill:#82d5fa; stroke:none;" d="M240 69L241 70L240 69z"/>
<path style="fill:#d4d6d7; stroke:none;" d="M241 70L242 71L241 70M64 71L64 72L77 72L64 71M93 71L93 72L106 72L93 71M62 72L63 73L62 72M107 72L108 73L107 72M182 72L183 73L182 72M243 72L244 73L243 72z"/>
<path style="fill:#82d5fa; stroke:none;" d="M60 73L61 74L60 73M109 73L110 74L109 73z"/>
<path style="fill:#71b9db; stroke:none;" d="M181 73L182 74L181 73M244 73L245 74L244 73z"/>
<path style="fill:#82d5fa; stroke:none;" d="M181 74L182 75L181 74M244 74L245 75L244 74z"/>
<path style="fill:#d4d6d7; stroke:none;" d="M59 75L60 76L59 75M110 75L111 76L110 75M58 77C59.0251 88.2914 67.9821 87 77 87C77 91.3101 76.0873 96.8947 77.7423 100.956C80.1342 106.826 88.6805 107.47 91.821 101.891C94.1064 97.8312 93 91.5014 93 87C102.018 87 110.975 88.2914 112 77L111 77C107.112 79.9455 101.716 79 97 79C85.9359 79 67.8036 82.4521 58 77M181 77C182.838 82.3447 186.401 84.4877 192 84.9097C205.639 85.9376 221.412 86.3745 235 84.8256C240.23 84.2295 243.307 81.9232 245 77L181 77z"/>
<path style="fill:#71b9db; stroke:none;" d="M181 79L182 80L181 79M244 79L245 80L244 79z"/>
<path style="fill:#82d5fa; stroke:none;" d="M58 81L59 82L58 81M111 81L112 82L111 81z"/>
<path style="fill:#71b9db; stroke:none;" d="M182 81L183 82L182 81M243 81L244 82L243 81M183 82L184 83L183 82M242 82L243 83L242 82M184 83L185 84L184 83M241 83L242 84L241 83M186.667 84.3333L187.333 84.6667L186.667 84.3333z"/>
<path style="fill:#82d5fa; stroke:none;" d="M188 84L189 85L188 84M237 84L238 85L237 84z"/>
<path style="fill:#71b9db; stroke:none;" d="M238.667 84.3333L239.333 84.6667L238.667 84.3333z"/>
<path style="fill:#82d5fa; stroke:none;" d="M62 86L63 87L62 86M107 86L108 87L107 86M65 87L65 88L77 88L65 87M93 87L93 88L105 88L93 87M149 138L149 266L231 266C244.29 266 258.811 267.498 268.895 256.957C278.524 246.892 277 232.792 277 220L277 138L149 138z"/>
<path style="fill:#d4d6d7; stroke:none;" d="M187 175L187 176L239 176L222 175L187 175z"/>
<path style="fill:#f8fafa; stroke:none;" d="M181 183L245 183C242.574 175.948 237.633 176 231 176C217.178 175.999 201.648 173.998 188.004 176.148C183.945 176.788 182.242 179.39 181 183z"/>
<path style="fill:#d4d6d7; stroke:none;" d="M183 177L184 178L183 177M242 177L243 178L242 177z"/>
<path style="fill:#71b9db; stroke:none;" d="M71.6667 180.333L72.3333 180.667L71.6667 180.333M97.6667 180.333L98.3333 180.667L97.6667 180.333z"/>
<path style="fill:#d4d6d7; stroke:none;" d="M181 180L182 181L181 180M244 180L245 181L244 180z"/>
<path style="fill:#82d5fa; stroke:none;" d="M68 181L69 182L68 181z"/>
<path style="fill:#f8fafa; stroke:none;" d="M69.044 181.758C59.8613 185.192 66.328 194.847 71.0039 198.852C75.9992 203.13 88.8256 203.673 95 201.397C101.942 198.837 112.49 182.302 98.9961 181.337C92.942 180.904 89.4251 190.209 84 188.793C78.4871 187.354 75.912 179.189 69.044 181.758z"/>
<path style="fill:#d4d6d7; stroke:none;" d="M74 181L75 182L74 181z"/>
<path style="fill:#71b9db; stroke:none;" d="M75 181L76 182L75 181M94 181L95 182L94 181z"/>
<path style="fill:#d4d6d7; stroke:none;" d="M95 181L96 182L95 181z"/>
<path style="fill:#82d5fa; stroke:none;" d="M101 181L102 182L101 181z"/>
<path style="fill:#71b9db; stroke:none;" d="M66 182L67 183L66 182z"/>
<path style="fill:#d4d6d7; stroke:none;" d="M76 182L77 183L76 182z"/>
<path style="fill:#82d5fa; stroke:none;" d="M93 182L94 183L93 182z"/>
<path style="fill:#71b9db; stroke:none;" d="M103 182L104 183L103 182M65 183L66 184L65 183z"/>
<path style="fill:#d4d6d7; stroke:none;" d="M77 183L78 184L77 183M92 183L93 184L92 183z"/>
<path style="fill:#71b9db; stroke:none;" d="M104 183L105 184L104 183z"/>
<path style="fill:#d4d6d7; stroke:none;" d="M181 183C181.731 186.609 183.103 189.67 187.015 190.682C192.465 192.092 199.392 191 205 191C215.419 191 228.899 193.291 238.985 190.682C242.897 189.67 244.269 186.609 245 183L181 183M78 184L79 185L78 184M91 184L92 185L91 184z"/>
<path style="fill:#82d5fa; stroke:none;" d="M64 185L65 186L64 185z"/>
<path style="fill:#d4d6d7; stroke:none;" d="M79 185L80 186L79 185M90 185L91 186L90 185z"/>
<path style="fill:#82d5fa; stroke:none;" d="M105 185L106 186L105 185z"/>
<path style="fill:#d4d6d7; stroke:none;" d="M80 186L81 187L80 186M89 186L90 187L89 186M81 187L82 188L81 187M88 187L89 188L88 187z"/>
<path style="fill:#71b9db; stroke:none;" d="M63.3333 188.667L63.6667 189.333L63.3333 188.667z"/>
<path style="fill:#d4d6d7; stroke:none;" d="M82 188L83 189L82 188M87 188L88 189L87 188z"/>
<path style="fill:#71b9db; stroke:none;" d="M106.333 188.667L106.667 189.333L106.333 188.667z"/>
<path style="fill:#d4d6d7; stroke:none;" d="M83 189L84 190L83 189M86 189L87 190L86 189M84.6667 190.333L85.3333 190.667L84.6667 190.333M64 191L65 192L64 191M105 191L106 192L105 191z"/>
<path style="fill:#71b9db; stroke:none;" d="M64 192L65 193L64 192M105 192L106 193L105 192z"/>
<path style="fill:#82d5fa; stroke:none;" d="M65 193L66 194L65 193M104 193L105 194L104 193z"/>
<path style="fill:#d4d6d7; stroke:none;" d="M66 194L67 195L66 194M103 194L104 195L103 194M67 195L68 196L67 195M102 195L103 196L102 195M68 196L69 197L68 196M101 196L102 197L101 196M69 197L70 198L69 197M100 197L101 198L100 197M70 198L71 199L70 198M99 198L100 199L99 198M71 199L72 200L71 199M98 199L99 200L98 199M72 200L73 201L72 200M97 200L98 201L97 200M73 201C69.8452 205.483 55.9763 225.139 73 222.677C77.6158 222.01 80.5753 216.041 85 216.055C89.4912 216.069 92.2458 222.158 97 222.728C114 224.765 100.293 205.679 97 201L73 201M187 207L187 208L239 208L222 207L187 207z"/>
<path style="fill:#f8fafa; stroke:none;" d="M181 215L245 215C242.574 207.948 237.633 208 231 208C217.178 207.999 201.648 205.998 188.004 208.148C183.945 208.788 182.242 211.39 181 215z"/>
<path style="fill:#d4d6d7; stroke:none;" d="M183 209L184 210L183 209M242 209L243 210L242 209z"/>
<path style="fill:#71b9db; stroke:none;" d="M64 211L65 212L64 211M105 211L106 212L105 211z"/>
<path style="fill:#d4d6d7; stroke:none;" d="M181 212L182 213L181 212M244 212L245 213L244 212z"/>
<path style="fill:#71b9db; stroke:none;" d="M63 214L63 217L64 217L63 214M106 214L106 217L107 217L106 214z"/>
<path style="fill:#d4d6d7; stroke:none;" d="M181 215C181.731 218.609 183.103 221.67 187.015 222.682C192.465 224.092 199.392 223 205 223C215.419 223 228.899 225.291 238.985 222.682C242.897 221.67 244.269 218.609 245 215L181 215z"/>
<path style="fill:#82d5fa; stroke:none;" d="M64 218L65 219L64 218M105 218L106 219L105 218z"/>
<path style="fill:#71b9db; stroke:none;" d="M65 220L66 221L65 220M104 220L105 221L104 220M66 221L67 222L66 221z"/>
<path style="fill:#82d5fa; stroke:none;" d="M76 221L77 222L76 221z"/>
<path style="fill:#71b9db; stroke:none;" d="M103 221L104 222L103 221z"/>
<path style="fill:#82d5fa; stroke:none;" d="M68 222L69 223L68 222z"/>
<path style="fill:#71b9db; stroke:none;" d="M75 222L76 223L75 222M94 222L95 223L94 222z"/>
<path style="fill:#82d5fa; stroke:none;" d="M101 222L102 223L101 222z"/>
<path style="fill:#71b9db; stroke:none;" d="M70 223L70 224L73 224L70 223M97 223L97 224L100 224L97 223M21 241L22 242L21 241z"/>
<path style="fill:#d4d6d7; stroke:none;" d="M276.333 241.667L276.667 242.333L276.333 241.667z"/>
<path style="fill:#82d5fa; stroke:none;" d="M21 242L22 243L21 242z"/>
<path style="fill:#d4d6d7; stroke:none;" d="M21 243L22 244L21 243z"/>
<path style="fill:#71b9db; stroke:none;" d="M22 245L23 246L22 245z"/>
<path style="fill:#d4d6d7; stroke:none;" d="M275 245L276 246L275 245z"/>
<path style="fill:#82d5fa; stroke:none;" d="M22 246L23 247L22 246z"/>
<path style="fill:#71b9db; stroke:none;" d="M23 248L24 249L23 248z"/>
<path style="fill:#d4d6d7; stroke:none;" d="M274 248L275 249L274 248z"/>
<path style="fill:#71b9db; stroke:none;" d="M24 250L25 251L24 250z"/>
<path style="fill:#d4d6d7; stroke:none;" d="M273 250L274 251L273 250z"/>
<path style="fill:#82d5fa; stroke:none;" d="M25 252L26 253L25 252z"/>
<path style="fill:#d4d6d7; stroke:none;" d="M272 252L273 253L272 252z"/>
<path style="fill:#71b9db; stroke:none;" d="M26 253L27 254L26 253z"/>
<path style="fill:#d4d6d7; stroke:none;" d="M27 255L28 256L27 255z"/>
<path style="fill:#82d5fa; stroke:none;" d="M28 256L29 257L28 256M29 257L30 258L29 257M30 258L31 259L30 258z"/>
<path style="fill:#d4d6d7; stroke:none;" d="M31 259L32 260L31 259z"/>
<path style="fill:#71b9db; stroke:none;" d="M33 260L34 261L33 260z"/>
<path style="fill:#82d5fa; stroke:none;" d="M34 261L35 262L34 261z"/>
<path style="fill:#d4d6d7; stroke:none;" d="M263 261L264 262L263 261z"/>
<path style="fill:#71b9db; stroke:none;" d="M36 262L37 263L36 262z"/>
<path style="fill:#d4d6d7; stroke:none;" d="M261 262L262 263L261 262z"/>
<path style="fill:#71b9db; stroke:none;" d="M38 263L39 264L38 263z"/>
<path style="fill:#d4d6d7; stroke:none;" d="M259 263L260 264L259 263z"/>
<path style="fill:#82d5fa; stroke:none;" d="M40 264L41 265L40 264z"/>
<path style="fill:#71b9db; stroke:none;" d="M41 264L42 265L41 264z"/>
<path style="fill:#d4d6d7; stroke:none;" d="M256 264L257 265L256 264M43 265L44 266L43 265z"/>
<path style="fill:#82d5fa; stroke:none;" d="M44 265L45 266L44 265z"/>
<path style="fill:#71b9db; stroke:none;" d="M45 265L46 266L45 265z"/>
<path style="fill:#d4d6d7; stroke:none;" d="M252.667 265.333L253.333 265.667L252.667 265.333z"/>
</svg>
